<svg xmlns="http://www.w3.org/2000/svg" id="logo_default" width="107.901" height="23.458" viewBox="0 0 107.901 23.458">
    <defs>
        <style>
            .cls-1{fill:#0a28dc}
        </style>
    </defs>
    <g id="logo_default-2" transform="translate(0 -10.278)">
        <path id="Fill_1" d="M14.3 17.169a8.651 8.651 0 0 1-2.82-.471 8.955 8.955 0 0 1-2.842.471 8.692 8.692 0 0 1-6.327-2.746A8.48 8.48 0 0 1 .024 7.94 8.662 8.662 0 0 1 8.528 0H8.6a8.8 8.8 0 0 1 2.856.47A8.993 8.993 0 0 1 14.313 0h.1a8.66 8.66 0 0 1 8.5 7.949 8.477 8.477 0 0 1-2.291 6.477 8.694 8.694 0 0 1-6.322 2.743zM8.638 1.346A7.323 7.323 0 0 0 3.28 3.687 7.147 7.147 0 0 0 1.381 9.2a7.256 7.256 0 0 0 6.977 6.616c.1 0 .195.006.292.006a7.3 7.3 0 0 0 5.141-2.122l2.876-2.817a3.268 3.268 0 0 0 .589-3.879l-.02-.034c-.055-.095-.1-.162-.14-.227l-.017-.024-5.109 5.172a4.669 4.669 0 0 1-2.845 1.347 4.9 4.9 0 0 1-.492.025 4.82 4.82 0 0 1-.594-.037 4.576 4.576 0 0 1-2.283-.967A5.06 5.06 0 0 1 4.69 11.1a4.429 4.429 0 0 1-.667-1.58 4.742 4.742 0 0 1-.093-.933v-.031A4.839 4.839 0 0 1 5.5 5l1.424-1.3c.222-.2.441-.414.644-.61a14.172 14.172 0 0 1 1.808-1.557l.047-.033.112-.076.015-.01.016-.01a7.429 7.429 0 0 0-.928-.058zm5.662 2.56a4.758 4.758 0 0 1 1.982.434 4.53 4.53 0 0 1 .9.566L17.3 5a4.78 4.78 0 0 1 1.705 3.583 4.62 4.62 0 0 1-.95 2.818 4.689 4.689 0 0 1-.39.452l-2.927 2.805c-.112.112-.234.226-.373.348l-.122.1c-.084.072-.173.145-.274.225l-.148.113c-.095.071-.187.138-.274.2l-.033.023-.116.079-.016.01-.012.008a7.6 7.6 0 0 0 .928.058 7.322 7.322 0 0 0 5.361-2.344 7.153 7.153 0 0 0 1.9-5.519 7.258 7.258 0 0 0-6.979-6.61c-.1 0-.195-.006-.291-.006a7.269 7.269 0 0 0-5.136 2.12L6.274 6.282a3.229 3.229 0 0 0-.431 4.141l.018.026 5.1-5.168A4.7 4.7 0 0 1 14.3 3.906zm.006 1.357a3.348 3.348 0 0 0-2.378.965l-5.1 5.161.008.005c.069.044.138.083.19.112l.078.044a3.407 3.407 0 0 0 1.536.366 3.361 3.361 0 0 0 .649-.063 4.086 4.086 0 0 0 2.126-1.324l4.694-4.749-.009-.008a3.342 3.342 0 0 0-1.794-.509z" class="cls-1" transform="translate(0 11.323)"/>
        <path id="Fill_4" d="M6.523 18.214a6.324 6.324 0 0 1-4.611-1.9A6.238 6.238 0 0 1 0 11.731V1.044A1.024 1.024 0 0 1 .308.306 1.031 1.031 0 0 1 1.049 0a1.05 1.05 0 0 1 .744.3 1.036 1.036 0 0 1 .31.743v5.918a6.324 6.324 0 0 1 4.42-1.713 6.346 6.346 0 0 1 4.616 1.894 6.261 6.261 0 0 1 1.91 4.589 6.237 6.237 0 0 1-1.91 4.581 6.321 6.321 0 0 1-4.616 1.902zm0-10.886A4.247 4.247 0 0 0 3.4 8.622a4.2 4.2 0 0 0-1.3 3.109 4.249 4.249 0 0 0 1.3 3.106 4.242 4.242 0 0 0 3.124 1.292 4.249 4.249 0 0 0 3.129-1.293 4.182 4.182 0 0 0 1.288-3.105 4.187 4.187 0 0 0-1.288-3.11 4.254 4.254 0 0 0-3.13-1.292z" class="cls-1" transform="translate(26.276 10.278)"/>
        <path id="Fill_7" d="M12 12.967a1.033 1.033 0 0 1-.75-.311 1 1 0 0 1-.311-.736v-.7a6.76 6.76 0 0 1-4.417 1.748 6.315 6.315 0 0 1-4.61-1.9A6.245 6.245 0 0 1 0 6.483 6.265 6.265 0 0 1 1.909 1.9 6.337 6.337 0 0 1 6.519 0a6.35 6.35 0 0 1 4.616 1.894 6.273 6.273 0 0 1 1.913 4.588v5.438a1 1 0 0 1-.31.742 1.021 1.021 0 0 1-.738.305zM6.519 2.081A4.285 4.285 0 0 0 3.4 3.374a4.186 4.186 0 0 0-1.3 3.109 4.239 4.239 0 0 0 1.3 3.106 4.227 4.227 0 0 0 3.12 1.292 4.253 4.253 0 0 0 3.13-1.293 4.178 4.178 0 0 0 1.287-3.1 4.183 4.183 0 0 0-1.289-3.114 4.255 4.255 0 0 0-3.129-1.293z" class="cls-1" transform="translate(40.82 15.526)"/>
        <path id="Fill_9" d="M9.024.455A6.273 6.273 0 0 0 6.525 0 6.782 6.782 0 0 0 2.1 1.75v-.707A1.029 1.029 0 0 0 1.051 0 1.038 1.038 0 0 0 0 1.043V11.92a1.017 1.017 0 0 0 .3.736 1.025 1.025 0 0 0 .746.311 1.033 1.033 0 0 0 .746-.308 1 1 0 0 0 .3-.739V6.483A4.161 4.161 0 0 1 3.4 3.374a4.293 4.293 0 0 1 3.125-1.293 3.916 3.916 0 0 1 1.711.339 1.086 1.086 0 0 0 .467.1 1 1 0 0 0 .737-.3 1.01 1.01 0 0 0 .31-.741 1.007 1.007 0 0 0-.3-.743 1.251 1.251 0 0 0-.426-.281" class="cls-1" transform="translate(55.683 15.525)"/>
        <path id="Fill_11" d="M6.524 12.967a6.324 6.324 0 0 1-4.613-1.9A6.249 6.249 0 0 1 0 6.483 6.274 6.274 0 0 1 1.911 1.9 6.35 6.35 0 0 1 6.524 0a6.338 6.338 0 0 1 4.613 1.894 6.271 6.271 0 0 1 1.913 4.588 6.253 6.253 0 0 1-1.913 4.581 6.32 6.32 0 0 1-4.613 1.904zm0-10.886A4.253 4.253 0 0 0 3.4 3.374a4.186 4.186 0 0 0-1.3 3.109 4.186 4.186 0 0 0 1.3 3.106 4.252 4.252 0 0 0 3.128 1.292 4.25 4.25 0 0 0 3.124-1.293 4.182 4.182 0 0 0 1.289-3.1 4.186 4.186 0 0 0-1.289-3.114 4.253 4.253 0 0 0-3.128-1.293z" class="cls-1" transform="translate(65.772 15.526)"/>
        <path id="Fill_13" d="M6.62 18.211a6.739 6.739 0 0 1-4.929-2.034A6.283 6.283 0 0 1 .473 14.62a1.181 1.181 0 0 1-.163-.58A1.027 1.027 0 0 1 1.355 13a1.067 1.067 0 0 1 .751.3 1.042 1.042 0 0 1 .222.307 4.9 4.9 0 0 0 .847 1.1 4.662 4.662 0 0 0 1.575 1.061 4.895 4.895 0 0 0 1.87.356 4.736 4.736 0 0 0 3.444-1.412 3.234 3.234 0 0 0 .875-2.058v-1.418a6.494 6.494 0 0 1-4.416 1.7A6.345 6.345 0 0 1 1.91 11.05 6.258 6.258 0 0 1 0 6.471a6.219 6.219 0 0 1 1.912-4.577A6.339 6.339 0 0 1 6.523 0a6.348 6.348 0 0 1 4.612 1.894 6.225 6.225 0 0 1 1.913 4.576v6.183a4.864 4.864 0 0 1-1.48 3.521 6.791 6.791 0 0 1-4.948 2.037zm-.1-16.13A4.26 4.26 0 0 0 3.4 3.362a4.244 4.244 0 0 0-1.3 3.109 4.213 4.213 0 0 0 1.3 3.092 4.23 4.23 0 0 0 3.126 1.3 4.287 4.287 0 0 0 3.126-1.3 4.2 4.2 0 0 0 1.291-3.093 4.191 4.191 0 0 0-1.294-3.108 4.318 4.318 0 0 0-3.126-1.281z" class="cls-1" transform="translate(80.314 15.525)"/>
        <path id="Fill_16" d="M6.523 12.967a6.32 6.32 0 0 1-4.614-1.9A6.236 6.236 0 0 1 0 6.483a6.26 6.26 0 0 1 1.909-4.588A6.345 6.345 0 0 1 6.523 0a6.35 6.35 0 0 1 4.612 1.894 6.267 6.267 0 0 1 1.912 4.588 6.246 6.246 0 0 1-1.911 4.581 6.332 6.332 0 0 1-4.613 1.904zm0-10.886a4.306 4.306 0 0 0-3.128 1.293A4.2 4.2 0 0 0 2.1 6.483a4.245 4.245 0 0 0 1.3 3.106 4.3 4.3 0 0 0 3.128 1.292 4.247 4.247 0 0 0 3.12-1.293 4.18 4.18 0 0 0 1.29-3.1 4.182 4.182 0 0 0-1.291-3.114 4.246 4.246 0 0 0-3.124-1.293z" class="cls-1" transform="translate(94.855 15.526)"/>
    </g>
</svg>
